<?xml version="1.0" encoding="UTF-8" standalone="no"?>
<svg
   version="1.1"
   width="725"
   height="303"
   id="svg76"
   sodipodi:docname="hnnnnnn171947.svg"
   inkscape:version="1.3.2 (091e20e, 2023-11-25, custom)"
   xmlns:inkscape="http://www.inkscape.org/namespaces/inkscape"
   xmlns:sodipodi="http://sodipodi.sourceforge.net/DTD/sodipodi-0.dtd"
   xmlns="http://www.w3.org/2000/svg"
   xmlns:svg="http://www.w3.org/2000/svg">
  <defs
     id="defs76" />
  <sodipodi:namedview
     id="namedview76"
     pagecolor="#ffffff"
     bordercolor="#000000"
     borderopacity="0.25"
     inkscape:showpageshadow="2"
     inkscape:pageopacity="0.0"
     inkscape:pagecheckerboard="0"
     inkscape:deskcolor="#d1d1d1"
     inkscape:zoom="0.91875116"
     inkscape:cx="219.86367"
     inkscape:cy="181.22426"
     inkscape:window-width="1920"
     inkscape:window-height="1051"
     inkscape:window-x="-9"
     inkscape:window-y="-9"
     inkscape:window-maximized="1"
     inkscape:current-layer="svg76" />
  <path
     d="m 162,159 c 3.96,0 7.92,0 12,0 0,22.77 0,45.54 0,69 -4.29,0 -8.58,0 -13,0 -0.0225,-8.84883 -0.0409,-17.69764 -0.0518,-26.54648 -0.005,-4.10846 -0.0123,-8.2169 -0.0236,-12.32535 -0.0108,-3.96164 -0.0168,-7.92326 -0.0194,-11.88492 -0.002,-1.51473 -0.005,-3.02947 -0.0108,-4.5442 -0.007,-2.11447 -0.008,-4.22886 -0.008,-6.34334 -0.002,-1.20579 -0.004,-2.41158 -0.007,-3.65391 C 161,160 161,160 162,159 Z"
     fill="#2A78B4"
     id="path9"
     style="fill:#000000"
     inkscape:export-filename="..\new hndasah\logo &amp; Icon.svg"
     inkscape:export-xdpi="96"
     inkscape:export-ydpi="96" />
  <path
     d="m 161,109 c 21.45,0 42.9,0 65,0 0,4.29 0,8.58 0,13 -21.45,0 -42.9,0 -65,0 0,-4.29 0,-8.58 0,-13 z"
     fill="#EA5E37"
     id="path10"
     style="fill:#d4aa00" />
  <path
     d="m 186,134 c 4.95,0 9.9,0 15,0 0.0247,5.53589 0.0428,11.07174 0.0549,16.60767 0.005,1.88477 0.0119,3.76953 0.0205,5.65429 0.0121,2.70306 0.0178,5.40606 0.0222,8.10913 0.005,0.84792 0.0103,1.69584 0.0156,2.56945 1.9e-4,2.02017 -0.0512,4.04024 -0.1133,6.05946 -1,1 -1,1 -3.90625,1.13281 -1.18594,-0.003 -2.37188,-0.005 -3.59375,-0.008 -1.18594,0.003 -2.37188,0.005 -3.59375,0.008 C 187,174 187,174 186,173 c -0.0887,-2.88434 -0.11521,-5.74462 -0.0977,-8.62891 0.001,-0.86423 0.003,-1.72846 0.004,-2.61888 0.006,-2.7716 0.0182,-5.54313 0.0309,-8.31471 0.005,-1.87435 0.01,-3.7487 0.0137,-5.62305 C 185.96222,143.2096 185.9795,138.60482 186,134 Z"
     fill="#40B151"
     id="path11"
     style="fill:#000000" />
  <path
     d="m 109,134 c 2.31244,-0.0268 4.62496,-0.0463 6.9375,-0.0625 1.28777,-0.0116 2.57555,-0.0232 3.90234,-0.0352 C 123,134 123,134 124,135 c 0.10103,2.79994 0.1397,5.57469 0.13281,8.375 9.6e-4,0.83966 0.002,1.67933 0.003,2.54443 6.8e-4,1.77881 -0.001,3.55762 -0.005,5.33643 -0.005,2.73248 -5e-5,5.46479 0.006,8.19726 -6.6e-4,1.72396 -0.002,3.44792 -0.004,5.17188 0.002,0.82291 0.004,1.64581 0.006,2.49365 -0.024,5.7664 -0.024,5.7664 -1.13894,6.88135 -2.16481,0.0989 -4.33294,0.12971 -6.5,0.125 -1.18594,0.003 -2.37188,0.005 -3.59375,0.008 C 110,174 110,174 109,173 c -0.0887,-2.88434 -0.11521,-5.74462 -0.0977,-8.62891 0.001,-0.86423 0.003,-1.72846 0.004,-2.61888 0.006,-2.7716 0.0182,-5.54313 0.0309,-8.31471 0.005,-1.87435 0.01,-3.7487 0.0137,-5.62305 0.011,-4.60485 0.0283,-9.20963 0.0488,-13.81445 z"
     fill="#354391"
     id="path12"
     style="fill:#000000" />
  <path
     d="m 135,159 c 4.62,0 9.24,0 14,0 0,13.2 0,26.4 0,40 -4.62,0 -9.24,0 -14,0 0,-13.2 0,-26.4 0,-40 z"
     fill="#2A78B4"
     id="path15"
     style="fill:#000000" />
  <path
     d="m 135,82 c 4.29,0 8.58,0 13,0 1,1 1,1 1.11352,4.693604 -1.5e-4,1.645109 -0.006,3.290223 -0.0159,4.935302 -0.001,0.864231 -0.003,1.728462 -0.004,2.618881 -0.006,2.771606 -0.0182,5.543132 -0.0309,8.314713 -0.005,1.87435 -0.01,3.7487 -0.0137,5.62305 -0.011,4.60485 -0.0283,9.20963 -0.0488,13.81445 -4.62,0 -9.24,0 -14,0 0,-13.2 0,-26.4 0,-40 z"
     fill="#2B78B4"
     id="path16"
     style="fill:#000000" />
  <path
     d="m 215.6936,133.88647 c 1.64511,1.6e-4 3.29023,0.006 4.93531,0.0159 1.29634,0.002 1.29634,0.002 2.61888,0.004 2.7716,0.006 5.54313,0.0182 8.31471,0.0309 1.87435,0.005 3.7487,0.01 5.62305,0.0137 4.60485,0.011 9.20963,0.0283 13.81445,0.0488 0,4.62 0,9.24 0,14 -5.53589,0.0246 -11.07174,0.0428 -16.60767,0.0549 -1.88477,0.005 -3.76953,0.0119 -5.65429,0.0205 -2.70306,0.0121 -5.40606,0.0178 -8.10913,0.0222 -0.84792,0.005 -1.69584,0.0103 -2.56945,0.0156 -2.02017,1.9e-4 -4.04024,-0.0512 -6.05946,-0.1133 -1,-1 -1,-1 -1.13281,-3.6875 0.003,-1.09313 0.005,-2.18625 0.008,-3.3125 -0.003,-1.09313 -0.005,-2.18625 -0.008,-3.3125 0.20499,-4.14813 0.50243,-3.66812 4.82641,-3.80103 z"
     fill="#EA5F38"
     id="path17"
     style="fill:#d4aa00" />
  <path
     d="m 135,134 c 12.87,0 25.74,0 39,0 0,4.62 0,9.24 0,14 -12.87,0 -25.74,0 -39,0 0,-4.62 0,-9.24 0,-14 z"
     fill="#8F2C8C"
     id="path18"
     style="fill:#d4aa00" />
  <path
     d="m 162,57 c 3.96,0 7.92,0 12,0 0,13.2 0,26.4 0,40 -4.29,0 -8.58,0 -13,0 -0.0246,-5.535885 -0.0428,-11.071739 -0.0549,-16.607666 -0.005,-1.884771 -0.0119,-3.769539 -0.0205,-5.654297 -0.0121,-2.703053 -0.0178,-5.406055 -0.0222,-8.109131 -0.005,-0.847916 -0.0103,-1.695832 -0.0156,-2.569443 C 160.88651,62.039289 160.93794,60.019221 161,58 c 0.33,-0.33 0.66,-0.66 1,-1 z"
     fill="#2A78B4"
     id="path20"
     style="fill:#000000" />
  <path
     d="m 215.16016,158.90234 c 1.93166,0.0174 1.93166,0.0174 3.90234,0.0352 1.29035,0.009 2.5807,0.018 3.91016,0.0273 0.99902,0.0116 1.99804,0.0232 3.02734,0.0352 0.0268,2.31244 0.0463,4.62496 0.0625,6.9375 0.0116,1.28777 0.0232,2.57555 0.0352,3.90234 C 226,173 226,173 225,174 c -2.16481,0.0989 -4.33294,0.12971 -6.5,0.125 -1.18594,0.003 -2.37188,0.005 -3.59375,0.008 C 212,174 212,174 211,173 c -0.0989,-2.16481 -0.12971,-4.33294 -0.125,-6.5 -0.003,-1.18594 -0.005,-2.37188 -0.008,-3.59375 0.18496,-4.04735 0.2011,-3.87746 4.29297,-4.00391 z"
     fill="#42B253"
     id="path25"
     style="fill:#000000" />
  <path
     d="m 186,82 c 2.31244,-0.02685 4.62496,-0.04633 6.9375,-0.0625 1.28777,-0.0116 2.57555,-0.0232 3.90234,-0.03516 C 200,82 200,82 201,83 c 0.0989,2.164808 0.12971,4.332938 0.125,6.5 0.003,1.185937 0.005,2.371875 0.008,3.59375 C 201,96 201,96 200,97 c -2.16481,0.09893 -4.33294,0.129711 -6.5,0.125 -1.18594,0.0026 -2.37188,0.0052 -3.59375,0.0078 C 187,97 187,97 186,96 c -0.0727,-2.353136 -0.0837,-4.708337 -0.0625,-7.0625 0.009,-1.290352 0.018,-2.580703 0.0273,-3.910156 C 185.97645,84.02832 185.98805,83.029297 186,82 Z"
     fill="#394693"
     id="path26"
     style="fill:#000000" />
  <path
     d="m 189.90625,183.86719 c 1.18594,0.003 2.37187,0.005 3.59375,0.008 1.18594,-0.003 2.37187,-0.005 3.59375,-0.008 C 200,184 200,184 201,185 c 0.0989,2.16481 0.12971,4.33294 0.125,6.5 0.003,1.18594 0.005,2.37187 0.008,3.59375 C 201,198 201,198 200,199 c -2.16481,0.0989 -4.33294,0.12971 -6.5,0.125 -1.18594,0.003 -2.37188,0.005 -3.59375,0.008 C 187,199 187,199 186,198 c -0.0989,-2.16481 -0.12971,-4.33294 -0.125,-6.5 -0.003,-1.18594 -0.005,-2.37188 -0.008,-3.59375 0.17651,-3.86255 0.17651,-3.86255 4.03906,-4.03906 z"
     fill="#EA623C"
     id="path27"
     style="fill:#d4aa00" />
  <path
     d="m 84,134 c 10.839844,-0.0977 10.839844,-0.0977 14,0 1,1 1,1 1.132812,3.6875 -0.0026,1.09313 -0.0052,2.18625 -0.0078,3.3125 0.0026,1.09313 0.0052,2.18625 0.0078,3.3125 C 99,147 99,147 98,148 c -4.668452,0.14427 -9.32866,0.0421 -14,0 0,-4.62 0,-9.24 0,-14 z"
     fill="#91308E"
     id="path28"
     style="fill:#000000" />
  <path
     d="m 112.90625,107.86719 c 1.18594,0.003 2.37188,0.005 3.59375,0.008 1.18594,-0.003 2.37188,-0.005 3.59375,-0.008 C 123,108 123,108 124,109 c 0.0987,1.998 0.12972,3.99957 0.125,6 0.003,1.09313 0.005,2.18625 0.008,3.3125 C 124,121 124,121 123,122 c -2.35314,0.0727 -4.70834,0.0837 -7.0625,0.0625 -1.29035,-0.009 -2.5807,-0.0181 -3.91016,-0.0273 C 111.02832,122.0236 110.0293,122.0119 109,122 c -0.0269,-2.14577 -0.0463,-4.29163 -0.0625,-6.4375 -0.0116,-1.19496 -0.0232,-2.38992 -0.0352,-3.62109 0.12939,-3.89716 0.12939,-3.89716 4.00391,-4.07422 z"
     fill="#943792"
     id="path29"
     style="fill:#000000" />
  <text
     xml:space="preserve"
     style="font-style:italic;font-stretch:condensed;font-size:237.573px;font-family:'Swis721 BlkCn BT';-inkscape-font-specification:'Swis721 BlkCn BT Italic Condensed';letter-spacing:0.356359px;word-spacing:-0.570174px;fill:#000000;stroke-width:0.712719"
     x="272.33252"
     y="237.62152"
     id="text76"
     transform="scale(1.0830542,0.92331483)"><tspan
       sodipodi:role="line"
       id="tspan76"
       x="272.33252"
       y="237.62152"
       style="fill:#000000;stroke-width:0.712719">ESI</tspan></text>
</svg>
