<?xml version="1.0" encoding="UTF-8" standalone="no"?>
<svg
   version="1.1"
   width="167"
   height="171"
   id="svg76"
   sodipodi:docname="hnnnnnn171947.svg"
   xmlns:inkscape="http://www.inkscape.org/namespaces/inkscape"
   xmlns:sodipodi="http://sodipodi.sourceforge.net/DTD/sodipodi-0.dtd"
   xmlns="http://www.w3.org/2000/svg"
   xmlns:svg="http://www.w3.org/2000/svg">
  <defs
     id="defs76" />
  <sodipodi:namedview
     id="namedview76"
     pagecolor="#ffffff"
     bordercolor="#000000"
     borderopacity="0.25"
     inkscape:showpageshadow="2"
     inkscape:pageopacity="0.0"
     inkscape:pagecheckerboard="0"
     inkscape:deskcolor="#d1d1d1" />
  <path
     d="m 78,102 c 3.96,0 7.92,0 12,0 0,22.77 0,45.54 0,69 -4.29,0 -8.58,0 -13,0 -0.0225,-8.84883 -0.0409,-17.69764 -0.0518,-26.54648 -0.005,-4.10846 -0.0123,-8.2169 -0.0236,-12.32535 -0.0108,-3.96164 -0.0168,-7.92326 -0.0194,-11.88492 -0.002,-1.51473 -0.005,-3.02947 -0.0108,-4.5442 -0.007,-2.11447 -0.008,-4.22886 -0.008,-6.34334 -0.002,-1.20579 -0.004,-2.41158 -0.007,-3.65391 C 77,103 77,103 78,102 Z"
     fill="#2A78B4"
     id="path9"
     style="fill:#000000" />
  <path
     d="m 77,52 c 21.45,0 42.9,0 65,0 0,4.29 0,8.58 0,13 -21.45,0 -42.9,0 -65,0 0,-4.29 0,-8.58 0,-13 z"
     fill="#EA5E37"
     id="path10"
     style="fill:#d4aa00" />
  <path
     d="m 102,77 c 4.95,0 9.9,0 15,0 0.0247,5.53589 0.0428,11.07174 0.0549,16.60767 0.005,1.88477 0.0119,3.76953 0.0205,5.65429 0.0121,2.70306 0.0178,5.40606 0.0222,8.10913 0.005,0.84792 0.0103,1.69584 0.0156,2.56945 1.9e-4,2.02017 -0.0512,4.04024 -0.1133,6.05946 -1,1 -1,1 -3.90625,1.13281 -1.18594,-0.003 -2.37188,-0.005 -3.59375,-0.008 -1.18594,0.003 -2.37188,0.005 -3.59375,0.008 C 103,117 103,117 102,116 c -0.0887,-2.88434 -0.11521,-5.74462 -0.0977,-8.62891 0.001,-0.86423 0.003,-1.72846 0.004,-2.61888 0.006,-2.7716 0.0182,-5.54313 0.0309,-8.31471 0.005,-1.87435 0.01,-3.7487 0.0137,-5.62305 C 101.96222,86.2096 101.9795,81.60482 102,77 Z"
     fill="#40B151"
     id="path11"
     style="fill:#000000" />
  <path
     d="m 25,77 c 2.31244,-0.0268 4.62496,-0.0463 6.9375,-0.0625 1.28777,-0.0116 2.57555,-0.0232 3.90234,-0.0352 C 39,77 39,77 40,78 c 0.10103,2.79994 0.1397,5.57469 0.13281,8.375 9.6e-4,0.83966 0.002,1.67933 0.003,2.54443 6.8e-4,1.77881 -10e-4,3.55762 -0.005,5.33643 -0.005,2.73248 -5e-5,5.46479 0.006,8.19726 -6.6e-4,1.72396 -0.002,3.44792 -0.004,5.17188 0.002,0.82291 0.004,1.64581 0.006,2.49365 -0.024,5.7664 -0.024,5.7664 -1.13894,6.88135 -2.16481,0.0989 -4.33294,0.12971 -6.5,0.125 -1.18594,0.003 -2.37188,0.005 -3.59375,0.008 C 26,117 26,117 25,116 c -0.0887,-2.88434 -0.11521,-5.74462 -0.0977,-8.62891 0.001,-0.86423 0.003,-1.72846 0.004,-2.61888 0.006,-2.7716 0.0182,-5.54313 0.0309,-8.31471 0.005,-1.87435 0.01,-3.7487 0.0137,-5.62305 C 24.9619,86.2096 24.9792,81.60482 24.9997,77 Z"
     fill="#354391"
     id="path12"
     style="fill:#000000" />
  <path
     d="m 51,102 c 4.62,0 9.24,0 14,0 0,13.2 0,26.4 0,40 -4.62,0 -9.24,0 -14,0 0,-13.2 0,-26.4 0,-40 z"
     fill="#2A78B4"
     id="path15"
     style="fill:#000000" />
  <path
     d="m 51,25 c 4.29,0 8.58,0 13,0 1,1 1,1 1.11352,4.693604 -1.5e-4,1.645109 -0.006,3.290223 -0.0159,4.935302 -0.001,0.864231 -0.003,1.728462 -0.004,2.618881 -0.006,2.771606 -0.0182,5.543132 -0.0309,8.314713 -0.005,1.87435 -0.01,3.7487 -0.0137,5.62305 -0.011,4.60485 -0.0283,9.20963 -0.0488,13.81445 -4.62,0 -9.24,0 -14,0 0,-13.2 0,-26.4 0,-40 z"
     fill="#2B78B4"
     id="path16"
     style="fill:#000000" />
  <path
     d="m 131.6936,76.88647 c 1.64511,1.6e-4 3.29023,0.006 4.93531,0.0159 1.29634,0.002 1.29634,0.002 2.61888,0.004 2.7716,0.006 5.54313,0.0182 8.31471,0.0309 1.87435,0.005 3.7487,0.01 5.62305,0.0137 4.60485,0.011 9.20963,0.0283 13.81445,0.0488 0,4.62 0,9.24 0,14 -5.53589,0.0246 -11.07174,0.0428 -16.60767,0.0549 -1.88477,0.005 -3.76953,0.0119 -5.65429,0.0205 -2.70306,0.0121 -5.40606,0.0178 -8.10913,0.0222 -0.84792,0.005 -1.69584,0.0103 -2.56945,0.0156 -2.02017,1.9e-4 -4.04024,-0.0512 -6.05946,-0.1133 -1,-1 -1,-1 -1.13281,-3.6875 0.003,-1.09313 0.005,-2.18625 0.008,-3.3125 -0.003,-1.09313 -0.005,-2.18625 -0.008,-3.3125 0.20499,-4.14813 0.50243,-3.66812 4.82641,-3.80103 z"
     fill="#EA5F38"
     id="path17"
     style="fill:#d4aa00" />
  <path
     d="m 51,77 c 12.87,0 25.74,0 39,0 0,4.62 0,9.24 0,14 -12.87,0 -25.74,0 -39,0 0,-4.62 0,-9.24 0,-14 z"
     fill="#8F2C8C"
     id="path18"
     style="fill:#d4aa00" />
  <path
     d="m 78,0 c 3.96,0 7.92,0 12,0 0,13.2 0,26.4 0,40 -4.29,0 -8.58,0 -13,0 C 76.9754,34.464115 76.9572,28.928261 76.9451,23.392334 76.9401,21.507563 76.9332,19.622795 76.9246,17.738037 76.9125,15.034984 76.9068,12.331982 76.9024,9.628906 76.8974,8.78099 76.8921,7.933074 76.8868,7.059463 76.88651,5.039289 76.93794,3.019221 77,1 77.33,0.67 77.66,0.34 78,0 Z"
     fill="#2A78B4"
     id="path20"
     style="fill:#000000" />
  <path
     d="m 131.16016,101.90234 c 1.93166,0.0174 1.93166,0.0174 3.90234,0.0352 1.29035,0.009 2.5807,0.018 3.91016,0.0273 0.99902,0.0116 1.99804,0.0232 3.02734,0.0352 0.0268,2.31244 0.0463,4.62496 0.0625,6.9375 0.0116,1.28777 0.0232,2.57555 0.0352,3.90234 C 142,116 142,116 141,117 c -2.16481,0.0989 -4.33294,0.12971 -6.5,0.125 -1.18594,0.003 -2.37188,0.005 -3.59375,0.008 C 128,117 128,117 127,116 c -0.0989,-2.16481 -0.12971,-4.33294 -0.125,-6.5 -0.003,-1.18594 -0.005,-2.37188 -0.008,-3.59375 0.18496,-4.04735 0.2011,-3.87746 4.29297,-4.00391 z"
     fill="#42B253"
     id="path25"
     style="fill:#000000" />
  <path
     d="m 102,25 c 2.31244,-0.02685 4.62496,-0.04633 6.9375,-0.0625 1.28777,-0.0116 2.57555,-0.0232 3.90234,-0.03516 C 116,25 116,25 117,26 c 0.0989,2.164808 0.12971,4.332938 0.125,6.5 0.003,1.185937 0.005,2.371875 0.008,3.59375 C 117,39 117,39 116,40 c -2.16481,0.09893 -4.33294,0.129711 -6.5,0.125 -1.18594,0.0026 -2.37188,0.0052 -3.59375,0.0078 C 103,40 103,40 102,39 c -0.0727,-2.353136 -0.0837,-4.708337 -0.0625,-7.0625 0.009,-1.290352 0.018,-2.580703 0.0273,-3.910156 C 101.97645,27.02832 101.98805,26.029297 102,25 Z"
     fill="#394693"
     id="path26"
     style="fill:#000000" />
  <path
     d="m 105.90625,126.86719 c 1.18594,0.003 2.37187,0.005 3.59375,0.008 1.18594,-0.003 2.37187,-0.005 3.59375,-0.008 C 116,127 116,127 117,128 c 0.0989,2.16481 0.12971,4.33294 0.125,6.5 0.003,1.18594 0.005,2.37187 0.008,3.59375 C 117,141 117,141 116,142 c -2.16481,0.0989 -4.33294,0.12971 -6.5,0.125 -1.18594,0.003 -2.37188,0.005 -3.59375,0.008 C 103,142 103,142 102,141 c -0.0989,-2.16481 -0.12971,-4.33294 -0.125,-6.5 -0.003,-1.18594 -0.005,-2.37188 -0.008,-3.59375 0.17651,-3.86255 0.17651,-3.86255 4.03906,-4.03906 z"
     fill="#EA623C"
     id="path27"
     style="fill:#d4aa00" />
  <path
     d="m 0,77 c 10.839844,-0.0977 10.839844,-0.0977 14,0 1,1 1,1 1.132812,3.6875 -0.0026,1.09313 -0.0052,2.18625 -0.0078,3.3125 0.0026,1.09313 0.0052,2.18625 0.0078,3.3125 C 15,90 15,90 14,91 9.331548,91.14427 4.67134,91.0421 0,91 0,86.38 0,81.76 0,77 Z"
     fill="#91308E"
     id="path28"
     style="fill:#000000" />
  <path
     d="m 28.90625,50.86719 c 1.18594,0.003 2.37188,0.005 3.59375,0.008 1.18594,-0.003 2.37188,-0.005 3.59375,-0.008 C 39,51 39,51 40,52 c 0.0987,1.998 0.12972,3.99957 0.125,6 0.003,1.09313 0.005,2.18625 0.008,3.3125 C 40,64 40,64 39,65 36.64686,65.0727 34.29166,65.0837 31.9375,65.0625 30.64715,65.0535 29.3568,65.0444 28.02734,65.0352 27.02832,65.0236 26.0293,65.0119 25,65 c -0.0269,-2.14577 -0.0463,-4.29163 -0.0625,-6.4375 -0.0116,-1.19496 -0.0232,-2.38992 -0.0352,-3.62109 0.12939,-3.89716 0.12939,-3.89716 4.00391,-4.07422 z"
     fill="#943792"
     id="path29"
     style="fill:#000000" />
</svg>
